<?xml version="1.0" encoding="utf-8"?>
<!-- Generator: Adobe Illustrator 23.0.2, SVG Export Plug-In . SVG Version: 6.00 Build 0)  -->
<svg version="1.1" id="Слой_1" xmlns="http://www.w3.org/2000/svg" xmlns:xlink="http://www.w3.org/1999/xlink" x="0px" y="0px"
	 viewBox="0 0 371 99" style="enable-background:new 0 0 371 99;" xml:space="preserve">
<style type="text/css">
	.st0{fill:#4855aa;}
	.st1{fill:#4855aa;}
</style>
<g>
	<path class="st0" d="M23.1,63h-13V5.9h13V63z M52,6v10.5H25.3V6H52z M49.9,27.6V38H25.4V27.6H49.9z M52.2,52.4v10.5H25.5V52.4H52.2
		z"/>
	<path class="st0" d="M81.1,63H77L56.2,6h12.3l12.6,34.6V63z M83.5,41.1l12.8-35h12.3L87.9,63h-4.3L83.5,41.1L83.5,41.1z"/>
	<path class="st0" d="M124.2,63h-13V5.9h13V63z M153.1,6v10.5h-26.7V6H153.1z M151,27.6V38h-24.5V27.6H151z M153.2,52.4v10.5h-26.7
		V52.4H153.2z"/>
	<path class="st0" d="M170,63h-13V9.4L170,31V63z M191.1,62.9L157.2,6h12.3l33.9,57L191.1,62.9z M190.6,6h13v53.6l-13-21.6V6z"/>
	<path class="st0" d="M250,6.1v10.5h-42.4V6.1H250z M235.5,62.8h-13V18.7h13V62.8z"/>
	<path class="st0" d="M280.3,16.4c-3.3,0.4-6.2,2.1-8.6,5.2c-2.8,3.6-4.2,7.8-4.2,12.9c0,5,1.4,9.3,4.2,12.8
		c2.4,3.1,5.3,4.9,8.6,5.3v10.3c-7-0.3-13-3-18.1-8.3c-5.3-5.6-8-12.3-8-20.2s2.7-14.6,8-20.2c5-5.3,11.1-8,18.1-8.3V16.4z
		 M282.3,52.7c3.7-0.2,6.8-2,9.5-5.4c2.8-3.5,4.2-7.8,4.2-12.8s-1.4-9.3-4.2-12.9c-2.6-3.4-5.8-5.1-9.5-5.3V5.8
		c7.1,0.2,13.2,3,18.4,8.3c5.3,5.6,8,12.3,8,20.2s-2.7,14.6-8,20.2c-5.1,5.4-11.2,8.1-18.4,8.4V52.7z"/>
	<path class="st0" d="M325.6,63h-13V5.9h13V63z M351.6,37.3c1,1,2,2.5,2.9,4.5c0.4,0.4,0.7,2.1,1,5.1l0.4,2
		c0.9,5.4,1.6,8.8,2.2,10.3c0.4,1.1,1.2,2.3,2.4,3.8H347c-0.6-0.1-1.4-1.7-2.4-4.9c-0.2-0.4-0.9-4.2-2-11.3c-0.5-1.7-1.6-3-3.3-4.1
		c-1.6-0.6-5.5-0.8-11.7-0.8V31.5H338c4.1-1.4,6.1-4.1,6.1-8v-1c-0.9-4.3-3.3-6.5-7.3-6.6h-9.1V5.7h9.1c7.7,0,13.2,2.1,16.6,6.2
		c2.4,3.6,3.7,7.3,3.7,11.2v0.8c0,4.5-1.3,8.4-3.9,11.7C352.8,36.2,352.2,36.8,351.6,37.3z"/>
</g>
<g>
	<path class="st1" d="M27.8,94.8h-2.5v-5H12.9v5h-2.5V82.4c0-2.6,2.2-5,5-5h7.4c2.7,0,4.9,2.2,5,5V94.8z M15.4,79.9
		c-1.4,0-2.5,1.1-2.5,2.5v5h12.4v-5c0-1.4-1.1-2.5-2.5-2.5H15.4z"/>
	<path class="st1" d="M38.4,76.7h2.5v2.5h3.5c2.7,0,5,2.3,5,5v4c0,2.7-2.2,5-5,5h-3.5v2.5h-2.5v-2.5h-3.5c-2.8,0-5-2.2-5-5v-4
		c0-2.7,2.2-5,5-5h3.5V76.7z M38.4,90.6v-8.9h-3.5c-1.4,0-2.5,1.1-2.5,2.5v4c0,1.4,1.1,2.5,2.5,2.5L38.4,90.6L38.4,90.6z M40.9,81.7
		v8.9h3.5c1.4,0,2.5-1.1,2.5-2.5v-4c0-1.4-1.1-2.5-2.5-2.5L40.9,81.7L40.9,81.7z"/>
	<path class="st1" d="M51.5,77.5H54v13.8l12.4-13.8h2.5v17.3h-2.5v-14L54,94.8h-2.5V77.5z"/>
	<path class="st1" d="M73.8,92.3h7.4V77.5h2.5v14.9h7.4V77.5h2.5v17.3H71.3V77.5h2.5V92.3z"/>
	<path class="st1" d="M113.4,94.8H111v-5H98.6v5h-2.5V82.4c0-2.6,2.2-5,5-5h7.4c2.7,0,4.9,2.2,5,5L113.4,94.8L113.4,94.8z
		 M101.1,79.9c-1.4,0-2.5,1.1-2.5,2.5v5H111v-5c0-1.4-1.1-2.5-2.5-2.5H101.1z"/>
	<path class="st1" d="M134.5,79.9v14.9H132V79.9h-7.4v-2.5h17.3v2.5H134.5z"/>
	<path class="st1" d="M143.2,94.8V77.5h12.4c2.6,0,5,2.2,5,5c0,1.5-0.6,2.7-1.7,3.7c1.1,1,1.7,2.2,1.7,3.7c0,2.7-2.2,4.9-5,5
		L143.2,94.8L143.2,94.8z M145.6,84.9h9.9c1.4,0,2.5-1.1,2.5-2.5s-1.1-2.5-2.5-2.5h-9.9V84.9z M145.6,87.4v5h9.9
		c1.4,0,2.5-1.1,2.5-2.5s-1.1-2.5-2.5-2.5H145.6z"/>
	<path class="st1" d="M179.8,89.8c0,2.7-2.2,5-5,5h-7.4c-2.8,0-5-2.2-5-5v-7.4c0-2.7,2.2-5,5-5h7.4c2.6,0,5,2.3,5,5V89.8z
		 M177.3,82.4c0-1.4-1.1-2.5-2.5-2.5h-7.4c-1.4,0-2.5,1.1-2.5,2.5v7.4c0,1.4,1.1,2.5,2.5,2.5h7.4c1.4,0,2.5-1.1,2.5-2.5V82.4z"/>
	<path class="st1" d="M184.5,84.9h12.4v2.5h-12.4v5h14.9v2.5H182V77.5h17.3V80h-14.9L184.5,84.9L184.5,84.9z"/>
	<path class="st1" d="M203.8,79.9v14.9h-2.5V77.5h14.9V80L203.8,79.9L203.8,79.9z"/>
	<path class="st1" d="M234.5,89.8c0,2.7-2.2,5-5,5h-7.4c-2.8,0-5-2.2-5-5v-7.4c0-2.7,2.2-5,5-5h7.4c2.6,0,5,2.3,5,5V89.8z
		 M232.1,82.4c0-1.4-1.1-2.5-2.5-2.5h-7.4c-1.4,0-2.5,1.1-2.5,2.5v7.4c0,1.4,1.1,2.5,2.5,2.5h7.4c1.4,0,2.5-1.1,2.5-2.5V82.4z"/>
	<path class="st1" d="M249.2,79.9v14.9h-2.5V77.5h14.9V80L249.2,79.9L249.2,79.9z"/>
	<path class="st1" d="M279.9,89.8c0,2.7-2.2,5-5,5h-7.4c-2.8,0-5-2.2-5-5v-7.4c0-2.7,2.2-5,5-5h7.4c2.6,0,5,2.3,5,5V89.8z
		 M277.4,82.4c0-1.4-1.1-2.5-2.5-2.5h-7.4c-1.4,0-2.5,1.1-2.5,2.5v7.4c0,1.4,1.1,2.5,2.5,2.5h7.4c1.4,0,2.5-1.1,2.5-2.5V82.4z"/>
	<path class="st1" d="M299.4,84.9c0,2.6-2.2,5-5,5h-9.9v5H282V77.5h12.4c2.7,0,4.9,2.2,5,5V84.9z M297,82.4c0-1.4-1.1-2.5-2.5-2.5
		h-9.9v7.4h9.9c1.4,0,2.5-1.1,2.5-2.5V82.4z"/>
	<path class="st1" d="M318.5,89.8c0,2.7-2.2,5-5,5h-7.4c-2.8,0-5-2.2-5-5v-7.4c0-2.7,2.2-5,5-5h7.4c2.6,0,5,2.3,5,5V89.8z M316,82.4
		c0-1.4-1.1-2.5-2.5-2.5h-7.4c-1.4,0-2.5,1.1-2.5,2.5v7.4c0,1.4,1.1,2.5,2.5,2.5h7.4c1.4,0,2.5-1.1,2.5-2.5V82.4z"/>
	<path class="st1" d="M319.5,92.3h2.5v-9.9c0-2.6,2.2-5,5-5h12.4v14.9h2.5v2.5h-22.3v-2.5H319.5z M324.4,92.3h12.4V79.9h-9.9
		c-1.4,0-2.5,1.1-2.5,2.5V92.3z"/>
	<path class="st1" d="M360.4,94.8h-2.5v-5h-12.4v5H343V82.4c0-2.6,2.2-5,5-5h7.4c2.7,0,4.9,2.2,5,5V94.8z M348,79.9
		c-1.4,0-2.5,1.1-2.5,2.5v5h12.4v-5c0-1.4-1.1-2.5-2.5-2.5H348z"/>
</g>
</svg>
